<?xml version="1.0" encoding="utf-8"?>
<!-- Generator: Adobe Illustrator 21.1.0, SVG Export Plug-In . SVG Version: 6.00 Build 0)  -->
<svg version="1.1" id="Laag_1" xmlns="http://www.w3.org/2000/svg" xmlns:xlink="http://www.w3.org/1999/xlink" x="0px" y="0px"
	 viewBox="0 0 16.7 20.8" style="enable-background:new 0 0 16.7 20.8;" xml:space="preserve">
<style type="text/css">
	.st0{fill:#2C2E87;}
	.st1{fill:#FFFFFF;}
	.st2{fill:#22D470;}
</style>
<path class="st0" d="M0,20.8"/>
<path class="st0" d="M14.5,0L14.5,0z"/>
<path class="st1" d="M10.6,12.3H7.1H10.6z"/>
<path class="st0" d="M9,11"/>
<path class="st2" d="M8.8,2.8c0.4-0.6,1-1,1.6-0.9c0.8,0.1,1.2,0.8,1.3,1.3c0.2,1.1-0.9,2.4-2.9,3.3C7.9,6.1,7.3,5.6,6.9,5.3
	C6.5,4.9,6.3,4.6,6.3,4.5C6.1,4.3,5.8,3.6,6,2.9c0-0.1,0.4-0.8,1.2-0.9c0.5-0.1,1,0.1,1.3,0.5C8.7,2.5,8.8,2.7,8.8,2.8z"/>
</svg>
