<?xml version="1.0" encoding="utf-8"?>
<!-- Generator: Adobe Illustrator 21.1.0, SVG Export Plug-In . SVG Version: 6.00 Build 0)  -->
<svg version="1.1" id="Laag_1" xmlns="http://www.w3.org/2000/svg" xmlns:xlink="http://www.w3.org/1999/xlink" x="0px" y="0px"
	 viewBox="0 0 16.7 20.8" style="enable-background:new 0 0 16.7 20.8;" xml:space="preserve">
<style type="text/css">
	.st0{fill:#22D470;}
	.st1{fill:#2C2E87;}
	.st2{fill:#FFFFFF;}
</style>
<circle class="st0" cx="8.6" cy="3.8" r="3.1"/>
<path class="st1" d="M0,20.8"/>
<path class="st1" d="M14.5,0L14.5,0z"/>
<path class="st2" d="M10.3,5.5H7.1H10.3z"/>
<path class="st2" d="M6.4,5.6l1.1-0.5l1.2,0.9l1-0.9l1.2,0.5c-0.3,0.3-1,1-2.2,1c-0.5,0-0.8-0.1-0.9-0.1C7.1,6.3,6.6,5.8,6.4,5.6z"
	/>
<path class="st2" d="M7.6,4.2C7.4,3.6,7.3,2.8,8,2.3c0.5-0.3,1-0.3,1.4,0C10,2.8,9.8,3.7,9.7,4.1c-0.1,0.2-0.4,1-1,1
	C8.2,5.2,7.7,4.5,7.6,4.2z"/>
</svg>
