<?xml version="1.0" encoding="utf-8"?>
<!-- Generator: Adobe Illustrator 21.1.0, SVG Export Plug-In . SVG Version: 6.00 Build 0)  -->
<svg version="1.1" id="Laag_1" xmlns="http://www.w3.org/2000/svg" xmlns:xlink="http://www.w3.org/1999/xlink" x="0px" y="0px"
	 viewBox="0 0 16.7 20.8" style="enable-background:new 0 0 16.7 20.8;" xml:space="preserve">
<style type="text/css">
	.st0{fill:#2C2E87;}
	.st1{fill:#22D470;}
</style>
<path class="st0" d="M0,20.8"/>
<path class="st0" d="M14.5,0L14.5,0z"/>
<path class="st1" d="M11,5.7L9.6,4.3C9.8,4,9.9,3.6,9.9,3.2C9.9,2,8.9,1,7.7,1S5.5,2,5.5,3.2s1,2.2,2.2,2.2c0.4,0,0.8-0.1,1.1-0.3
	l1.5,1.5c0.1,0.1,0.2,0.2,0.4,0.2c0.3,0,0.5-0.2,0.5-0.5C11.2,5.9,11.1,5.8,11,5.7z M7.7,4.4C7,4.4,6.4,3.8,6.4,3.1S7,1.8,7.7,1.8
	S9,2.4,9,3.1S8.4,4.4,7.7,4.4z"/>
</svg>
